#Unknown ASF file
:ROOT_YZX
:FOOT_3DOF
:FULLY-SPECIFIED
:DEGREES
605
root 6.62216 17.7444 -7.06145 -0.441376 4.9084 4.81935
lfemur 13.7428 -1.30756 -26.8156
ltibia 21.8886
lfoot -10.8617 0 -7.53829
ltoes -32.5423
rfemur -29.6881 -1.27354 16.1904
rtibia 30.3527
rfoot -3.82477 0 -5.63653
rtoes -10.2408
lowerback 10.3392 -2.00679 -7.44296
upperback 1.61419 -3.3663 2.8148
thorax -3.4965 -1.57892 7.61483
lowerneck -14.8942 -8.16604 -18.7983
upperneck 17.1388 -10.1383 15.686
head 9.69095 -4.52122 7.26626
lclavicle 6.36111e-015 -8.74653e-015
lhumerus -23.2361 0.853634 84.9234
lradius 46.2702
lwrist 8.07533
lhand -15.5379 31.9793
lfingers 7.12502
lthumb 10.6459 61.6896
rclavicle 6.36111e-015 -8.74653e-015
rhumerus -37.4553 -14.2635 -74.6434
rradius 23.7968
rwrist 7.50665
rhand -21.7095 12.6281
rfingers 7.12502
rthumb 4.68929 -17.3
606
root 6.57181 17.8341 -6.41017 -0.0742079 3.72584 4.36879
lfemur 12.5539 -1.22848 -25.9791
ltibia 26.094
lfoot -4.97771 0 -8.85275
ltoes -33.4711
rfemur -28.2888 -1.71858 17.4163
rtibia 30.9171
rfoot -3.79755 0 -3.74346
rtoes -8.40087
lowerback 10.205 -1.92522 -7.02804
upperback 1.21911 -3.20191 3.04322
thorax -3.87946 -1.46975 7.6117
lowerneck -14.9847 -8.0678 -18.8137
upperneck 17.7796 -10.0535 15.6878
head 9.91491 -4.48379 7.30633
lclavicle 1.31198e-014 2.22639e-014
lhumerus -25.3903 0.673789 85.6337
lradius 46.1621
lwrist 9.05869
lhand -14.8239 32.5644
lfingers 7.12502
lthumb 11.3346 62.2381
rclavicle 1.31198e-014 2.22639e-014
rhumerus -37.8231 -14.0212 -74.4369
rradius 23.8066
rwrist 6.97316
rhand -21.8949 13.0359
rfingers 7.12502
rthumb 4.51025 -16.8961
607
root 6.5004 17.8987 -5.72791 -0.474498 3.92223 3.48085
lfemur 10.4486 -0.563344 -23.7603
ltibia 32.4444
lfoot 3.55207 0 -11.2313
ltoes -33.395
rfemur -25.8797 -2.22223 18.7992
rtibia 31.9116
rfoot -5.13011 0 -2.81309
rtoes 2.68941
lowerback 10.2906 -2.28219 -6.27746
upperback 1.04821 -3.58571 3.36804
thorax -4.06332 -1.65662 7.58663
lowerneck -14.797 -7.82968 -18.5265
upperneck 17.9992 -9.7774 15.3897
head 9.86636 -4.37369 7.19958
lclavicle -2.10712e-014 2.06736e-014
lhumerus -27.5075 0.301744 86.2716
lradius 45.1031
lwrist 8.00094
lhand -14.3512 30.4219
lfingers 7.12502
lthumb 11.7904 60.07
rclavicle -2.10712e-014 2.06736e-014
rhumerus -37.8941 -13.9512 -74.3278
rradius 23.5952
rwrist 7.19856
rhand -21.4287 13.9376
rfingers 7.12502
rthumb 4.96037 -15.9844
608
root 6.44462 17.9119 -5.11014 -0.680789 2.36263 2.12819
lfemur 6.60392 1.39208 -21.142
ltibia 40.5225
lfoot 13.4619 0 -11.9824
ltoes -27.4303
rfemur -24.2523 -1.4823 21.0735
rtibia 33.2982
rfoot -5.20969 0 -1.09802
rtoes -6.2867
lowerback 10.3813 -1.9656 -4.91597
upperback 1.15288 -2.99628 3.70769
thorax -4.1582 -1.38232 7.09973
lowerneck -14.2369 -8.10058 -18.0803
upperneck 17.2002 -10.0706 14.4537
head 9.45925 -4.58162 6.70273
lclavicle 2.0773e-014 1.82882e-014
lhumerus -29.3112 -0.598489 87.1364
lradius 44.4547
lwrist 5.81424
lhand -14.3766 28.1063
lfingers 7.12502
lthumb 11.766 57.7559
rclavicle 2.0773e-014 1.82882e-014
rhumerus -37.6222 -12.0641 -75.464
rradius 24.8703
rwrist 5.50572
rhand -21.3041 12.8155
rfingers 7.12502
rthumb 5.08068 -17.1036
609
root 6.36409 17.9053 -4.51947 -1.26715 1.23231 1.30871
lfemur 2.08441 2.7617 -19.0873
ltibia 49.42
lfoot 21.614 0 -11.9742
ltoes -19.0382
rfemur -22.2582 0.267128 22.5396
rtibia 34.7745
rfoot -7.36439 0 -1.80575
rtoes -0.396171
lowerback 10.9829 -1.69338 -4.41391
upperback 1.23404 -2.58861 3.82243
thorax -4.48862 -1.17643 6.91338
lowerneck -14.0491 -8.11383 -17.8467
upperneck 17.0784 -10.1573 14.4125
head 9.38226 -4.61775 6.6346
lclavicle -3.93594e-014 1.98785e-014
lhumerus -31.5513 -1.70956 87.9736
lradius 44.0814
lwrist 4.576
lhand -11.6808 29.5763
lfingers 7.12502
lthumb 14.3646 59.0593
rclavicle -3.93594e-014 1.98785e-014
rhumerus -37.3485 -10.3187 -76.5679
rradius 26.106
rwrist 4.62452
rhand -20.5473 13.3276
rfingers 7.12502
rthumb 5.81142 -16.5727
610
root 6.2884 17.8503 -3.92947 -2.44835 0.455995 0.295989
lfemur -1.36647 3.69839 -16.8688
ltibia 57.4804
lfoot 21.6011 0 -11.7213
ltoes -16.7775
rfemur -19.2929 1.47603 24.259
rtibia 35.9449
rfoot -10.0612 0 -2.86404
rtoes -2.07318
lowerback 11.2666 -1.4153 -3.60711
upperback 2.12498 -2.13445 3.84159
thorax -3.8058 -1.00766 6.39048
lowerneck -13.8723 -8.35894 -17.6878
upperneck 16.011 -10.5799 14.9775
head 9.0886 -4.75845 6.7244
lclavicle 1.35174e-014 3.18055e-015
lhumerus -31.8444 -2.68959 88.7299
lradius 42.5627
lwrist 2.97697
lhand -11.9416 29.0194
lfingers 7.12502
lthumb 14.1133 58.5201
rclavicle 1.35174e-014 3.18055e-015
rhumerus -35.4047 -9.72649 -77.6898
rradius 26.4834
rwrist 4.28069
rhand -19.9995 16.6857
rfingers 7.12502
rthumb 6.34031 -13.1994
611
root 6.20544 17.8011 -3.3839 -3.23667 -0.0880109 -1.084
lfemur -5.54104 4.64209 -14.2128
ltibia 64.4498
lfoot 15.3426 0 -10.2676
ltoes -21.7731
rfemur -16.7665 2.50649 26.4582
rtibia 36.7908
rfoot -12.6216 0 -4.00929
rtoes -1.34119
lowerback 12.007 -1.20107 -2.56663
upperback 2.27704 -1.72127 4.10327
thorax -4.13504 -0.806494 6.04231
lowerneck -13.642 -8.51006 -17.8268
upperneck 16.2265 -10.8809 15.2228
head 9.1993 -4.89732 6.80143
lclavicle -7.15625e-015 -3.49861e-014
lhumerus -32.989 -2.01085 89.2826
lradius 40.7311
lwrist 1.13915
lhand -11.6714 29.5761
lfingers 7.12502
lthumb 14.3736 59.0584
rclavicle -7.15625e-015 -3.49861e-014
rhumerus -34.3512 -9.0668 -78.1337
rradius 26.9063
rwrist 4.34958
rhand -20.4817 18.6085
rfingers 7.12502
rthumb 5.87473 -11.2901
612
root 6.13559 17.7732 -2.82532 -3.88463 -0.944007 -2.64864
lfemur -9.45686 5.6349 -11.5865
ltibia 68.9577
lfoot 9.30708 0 -8.51672
ltoes -21.9552
rfemur -14.0087 3.29757 28.8007
rtibia 36.5715
rfoot -13.6518 0 -4.6377
rtoes -6.29875
lowerback 11.9209 -0.939593 -1.39674
upperback 2.5426 -1.21935 4.44172
thorax -3.88854 -0.579903 5.64676
lowerneck -12.7987 -8.61396 -17.9829
upperneck 16.1353 -11.1739 15.4208
head 9.09017 -5.06442 6.87184
lclavicle -1.21259e-014 1.03368e-014
lhumerus -34.3046 0.52718 89.2097
lradius 38.8092
lwrist -0.903229
lhand -12.1135 28.6757
lfingers 7.12502
lthumb 13.9476 58.1879
rclavicle -1.21259e-014 1.03368e-014
rhumerus -33.0955 -9.14101 -78.3013
rradius 27.4632
rwrist 4.24739
rhand -20.5151 16.2812
rfingers 7.12502
rthumb 5.84253 -13.6182
613
root 6.09067 17.7541 -2.28904 -4.11737 -1.59967 -3.30972
lfemur -13.445 6.09832 -10.689
ltibia 70.6717
lfoot 4.10702 0 -7.27424
ltoes -22.1308
rfemur -11.1748 3.34156 29.8569
rtibia 35.772
rfoot -15.2423 0 -4.38751
rtoes -7.1443
lowerback 11.434 -0.567166 -0.921642
upperback 2.69422 -0.675458 4.51694
thorax -3.525 -0.322883 5.35685
lowerneck -12.9379 -8.63714 -18.2608
upperneck 16.9955 -11.3631 16.0404
head 9.50595 -5.11332 7.14335
lclavicle -5.96354e-016 1.59028e-015
lhumerus -35.0475 3.37969 88.8922
lradius 35.6743
lwrist -1.38812
lhand -14.0739 27.1006
lfingers 7.12502
lthumb 12.0578 56.7332
rclavicle -5.96354e-016 1.59028e-015
rhumerus -31.9699 -9.5695 -78.2
rradius 28.2155
rwrist 3.56887
rhand -20.6333 13.6983
rfingers 7.12502
rthumb 5.72843 -16.2042
614
root 6.04273 17.7518 -1.76825 -4.23479 -2.27551 -4.65535
lfemur -17.124 6.08419 -9.25321
ltibia 70.0212
lfoot -2.1466 0 -6.383
ltoes -19.4235
rfemur -8.21368 3.54834 31.6774
rtibia 34.1246
rfoot -16.3151 0 -4.24567
rtoes -5.70648
lowerback 11.2921 -0.2025 0.281805
upperback 2.4511 -0.0364114 4.69176
thorax -3.76668 -0.00822546 4.76307
lowerneck -12.2044 -8.88668 -18.1039
upperneck 17.091 -11.8405 15.8021
head 9.46689 -5.3792 6.96966
lclavicle 4.96962e-016 -3.57812e-014
lhumerus -36.6198 6.07836 88.0296
lradius 33.7109
lwrist -1.12891
lhand -12.8942 30.3901
lfingers 7.12502
lthumb 13.1952 59.9525
rclavicle 4.96962e-016 -3.57812e-014
rhumerus -31.6792 -9.39333 -78.2259
rradius 29.1628
rwrist 1.82753
rhand -21.1572 12.2922
rfingers 7.12502
rthumb 5.2226 -17.6234
615
root 6.03113 17.7734 -1.26158 -4.09519 -3.31163 -5.38605
lfemur -20.3879 6.21972 -9.06872
ltibia 66.9069
lfoot -6.19026 0 -3.90927
ltoes -20.2431
rfemur -5.44565 3.45882 32.4907
rtibia 32.2918
rfoot -16.9651 0 -3.26101
rtoes -2.63549
lowerback 10.988 0.341923 1.31719
upperback 2.25483 0.802597 4.64351
thorax -3.85704 0.400012 3.99947
lowerneck -11.6075 -9.13432 -18.4981
upperneck 16.8496 -12.3042 16.3178
head 9.42826 -5.60603 7.16218
lclavicle 1.30204e-014 -1.59028e-015
lhumerus -37.8594 9.13885 86.4716
lradius 30.7037
lwrist -2.06594
lhand -10.8425 30.8207
lfingers 7.12502
lthumb 15.1723 60.2445
rclavicle 1.30204e-014 -1.59028e-015
rhumerus -31.4873 -8.99311 -78.1697
rradius 30.3503
rwrist 0.740269
rhand -21.4173 11.0995
rfingers 7.12502
rthumb 4.97138 -18.8222
616
root 6.0158 17.7994 -0.757272 -3.95332 -4.48273 -6.25395
lfemur -22.825 6.25503 -8.76731
ltibia 61.8161
lfoot -8.87628 0 -0.0445876
ltoes -19.3065
rfemur -2.51656 3.81824 33.5057
rtibia 29.909
rfoot -17.3023 0 -2.62533
rtoes -3.72857
lowerback 10.6556 0.836298 2.43552
upperback 2.19018 1.56843 4.5657
thorax -3.75458 0.767335 3.17612
lowerneck -11.3016 -9.30128 -18.889
upperneck 16.4853 -12.6314 17.0254
head 9.39449 -5.7422 7.43791
lclavicle -1.83876e-015 2.38542e-015
lhumerus -39.2977 10.4257 85.2146
lradius 28.8633
lwrist -2.30807
lhand -11.3607 28.4784
lfingers 7.12502
lthumb 14.673 57.9392
rclavicle -1.83876e-015 2.38542e-015
rhumerus -30.9171 -7.85415 -78.7361
rradius 32.1974
rwrist 1.45277
rhand -20.8222 6.16647
rfingers 7.12502
rthumb 5.54599 -23.741
617
root 6.01286 17.8509 -0.258971 -3.28855 -5.05694 -6.82558
lfemur -24.9765 5.57219 -8.9348
ltibia 54.5533
lfoot -9.80476 0 3.26463
ltoes -19.0509
rfemur 0.112083 3.28115 33.8555
rtibia 26.9421
rfoot -17.1491 0 -1.50774
rtoes -3.37004
lowerback 10.5777 1.12252 3.45603
upperback 1.55951 2.08792 4.41034
thorax -4.34892 1.00643 2.36438
lowerneck -11.069 -9.45792 -19.2162
upperneck 16.5643 -12.8708 17.1369
head 9.45997 -5.87748 7.504
lclavicle 2.45499e-014 6.04305e-014
lhumerus -41.3726 11.3501 83.9023
lradius 27.7639
lwrist -3.31201
lhand -9.52272 30.3201
lfingers 7.12502
lthumb 16.4432 59.6432
rclavicle 2.45499e-014 6.04305e-014
rhumerus -30.7827 -6.28853 -79.0561
rradius 32.5812
rwrist 0.299499
rhand -22.2348 9.50262
rfingers 7.12502
rthumb 4.18204 -20.4361
618
root 6.01018 17.8707 0.23071 -2.47794 -6.07511 -7.56675
lfemur -26.4815 4.88069 -8.61807
ltibia 45.9905
lfoot -9.17804 0 5.89882
ltoes -16.8447
rfemur 2.7513 3.25448 34.43
rtibia 23.5499
rfoot -16.4823 0 -0.734264
rtoes -3.46732
lowerback 9.98272 1.53323 4.5073
upperback 1.33296 2.7187 4.36369
thorax -4.2148 1.30138 1.65121
lowerneck -11.2147 -9.56522 -19.5185
upperneck 16.1722 -12.9175 17.2833
head 9.39754 -5.89958 7.58431
lclavicle 2.60905e-014 3.97569e-014
lhumerus -42.3631 12.472 82.5998
lradius 26.3581
lwrist -5.00321
lhand -9.53881 29.4493
lfingers 7.12502
lthumb 16.4277 58.7737
rclavicle 2.60905e-014 3.97569e-014
rhumerus -30.2064 -4.4835 -79.4837
rradius 33.8903
rwrist -0.297451
rhand -21.9086 9.93483
rfingers 7.12502
rthumb 4.49706 -19.9974
